# xmcd CD database file
#
# Track frame offsets:
#	150
#	17074
#	33697
#	52080
#
# Disc length: 916 seconds
#
# Revision: 1
# Processed by: cddbd v1.5.2PL0 Copyright (c) Steve Scherf et al.
# Submitted via: CDex 1.70beta3
#
DISCID=31039204
DTITLE=Smile - Obvious
DYEAR=1992
DGENRE=Blues
TTITLE0=Obvious
TTITLE1=Baby's Gone
TTITLE2=The Best Little Warehouse
TTITLE3=Another Year
EXTD=YEAR: 1992
EXTT0=
EXTT1=
EXTT2=
EXTT3=
PLAYORDER=
